<?xml version="1.0" standalone="no"?>
<!DOCTYPE svg PUBLIC "-//W3C//DTD SVG 20010904//EN"
 "http://www.w3.org/TR/2001/REC-SVG-20010904/DTD/svg10.dtd">
<svg version="1.0" xmlns="http://www.w3.org/2000/svg"
 width="200.000000pt" height="200.000000pt" viewBox="0 0 200.000000 200.000000"
 preserveAspectRatio="xMidYMid meet">

<g transform="translate(0.000000,200.000000) scale(0.100000,-0.100000)"
fill="#000000" stroke="none">
<path d="M2 1133 l3 -298 28 -57 c16 -34 42 -68 65 -85 20 -15 39 -30 42 -34
30 -33 229 -99 301 -99 13 0 43 -3 66 -6 56 -8 261 12 354 35 89 22 147 55
209 120 77 81 81 102 78 431 l-3 285 -127 3 -128 3 0 -273 c0 -315 -2 -321
-88 -361 -41 -19 -68 -22 -218 -25 -190 -4 -243 5 -280 45 l-24 26 0 293 0
294 -141 0 -140 0 3 -297z"/>
<path d="M1483 1322 c-66 -59 -143 -125 -170 -147 -26 -22 -67 -59 -90 -83
-37 -36 -43 -48 -43 -84 0 -45 -17 -25 196 -229 43 -42 115 -109 159 -148 l80
-71 167 0 c93 0 168 4 168 8 0 10 -20 28 -302 284 -109 99 -198 183 -198 186
0 4 11 14 24 22 13 8 70 50 126 93 56 42 104 77 107 77 3 0 24 15 47 33 23 18
64 48 91 67 28 19 72 49 99 67 l48 33 -193 0 -194 0 -122 -108z"/>
</g>
</svg>
