<?xml version="1.0" standalone="no"?>
<!DOCTYPE svg PUBLIC "-//W3C//DTD SVG 20010904//EN" "http://www.w3.org/TR/2001/REC-SVG-20010904/DTD/svg10.dtd">
<!-- Created using Karbon, part of Calligra: http://www.calligra.org/karbon -->
<svg xmlns="http://www.w3.org/2000/svg" xmlns:xlink="http://www.w3.org/1999/xlink" width="102.4pt" height="102.4pt">
<defs/>
<g id="layer1">
  <g id="g7937" transform="translate(1.82974, 1.05789)" fill="none">
   <path id="path7797" transform="matrix(0.367599 0 0 -0.372163 0.22975 125.652)" fill="#1756b6" d="M337 168.5C337 261.56 261.56 337 168.5 337C75.44 337 -1.96109e-06 261.56 0 168.5C-1.96109e-06 75.44 75.44 0 168.5 0C261.56 0 337 75.44 337 168.5Z"/>
   <path id="path7946" transform="matrix(0.344502 0 0 -0.348779 4.12159 121.711)" fill="#ffffff" d="M337 168.5C337 261.56 261.56 337 168.5 337C75.44 337 -1.96109e-06 261.56 0 168.5C-1.96109e-06 75.44 75.44 0 168.5 0C261.56 0 337 75.44 337 168.5Z"/>
   <path id="path7948" transform="matrix(0.329115 0 0 -0.333201 6.71445 119.086)" fill="#1756b6" d="M337 168.5C337 261.56 261.56 337 168.5 337C75.44 337 -1.96109e-06 261.56 0 168.5C-1.96109e-06 75.44 75.44 0 168.5 0C261.56 0 337 75.44 337 168.5Z"/>
   <g id="g7930" transform="translate(17.7274, 18.6574)" fill="none">
    <path id="path7811" transform="matrix(0.310629 0 0 0.314486 39.0784 32.6895)" fill="#ffffff" fill-rule="evenodd" d="M141.863 81.3435C182.003 52.2622 151.563 53.8096 147.476 7.33727C143.574 -37.0457 18.6887 138.257 0 46.1867C3.4347 124.352 101.342 110.701 141.863 81.3435Z"/>
    <path id="path7813" transform="matrix(0.310629 0 0 0.314486 25.7597 40.8443)" fill="#ffffff" fill-rule="evenodd" d="M50.052 145.784C90.1139 174.972 79.2357 146.5 122.171 128.253C163.176 110.827 -42.1386 46.2253 39.6501 0C-33.6285 27.4212 9.60948 116.318 50.052 145.784Z"/>
    <path id="path7815" transform="matrix(0.310629 0 0 0.314486 0.181052 30.2975)" fill="#ffffff" fill-rule="evenodd" d="M4.81846 79.1466C-10.5617 126.267 13.1552 107.123 43.7766 142.319C73.0214 175.931 71.0156 -39.2972 140.253 24.2042C91.5292 -37.0143 20.3448 31.578 4.81846 79.1466Z"/>
    <path id="path7817" transform="matrix(0.310629 0 0 0.314486 3.54478 7.29825)" fill="#ffffff" fill-rule="evenodd" d="M49.8445 0.000197281C0.277107 -0.0661027 25.8131 16.5742 1.80311 56.5728C-21.1275 94.7732 182.947 26.3563 143.949 111.827C187.115 46.5713 99.8828 0.0670973 49.8445 0.000197281Z"/>
    <path id="path7819" transform="matrix(0.310629 0 0 0.314486 45.1633 0.198339)" fill="#ffffff" fill-rule="evenodd" d="M77.9381 28.6263C62.684 -18.5355 54.7492 10.8927 9.28872 0.418073C-34.128 -9.58563 94.0029 163.359 0.663917 152.682C76.0653 173.57 93.3371 76.2363 77.9381 28.6263Z"/>
   </g>
  </g>
 </g>
</svg>
